<svg xmlns="http://www.w3.org/2000/svg" width="1280" height="760" viewBox="0 0 1280 760">
  <rect width="1280" height="760" fill="#f6f8fb"/>
  <rect x="28" y="24" width="1224" height="712" rx="8" fill="#ffffff" stroke="#d8dee9"/>

  <text x="56" y="64" font-family="Microsoft YaHei, Arial, sans-serif" font-size="24" font-weight="700" fill="#111827">阶段时延 - 时间线视图</text>
  <text x="56" y="94" font-family="Microsoft YaHei, Arial, sans-serif" font-size="14" fill="#6b7280">A日志 -> B日志 的耗时记为 B阶段；B日志 -> C日志 的耗时记为 C阶段</text>

  <rect x="56" y="122" width="188" height="34" rx="6" fill="#eff6ff" stroke="#bfdbfe"/>
  <text x="76" y="144" font-family="Microsoft YaHei, Arial, sans-serif" font-size="14" fill="#1e40af">流程: 登录唤醒链路</text>
  <rect x="260" y="122" width="146" height="34" rx="6" fill="#f0fdf4" stroke="#bbf7d0"/>
  <text x="280" y="144" font-family="Microsoft YaHei, Arial, sans-serif" font-size="14" fill="#166534">应用: A00010</text>

  <g font-family="Microsoft YaHei, Arial, sans-serif" font-size="13" fill="#374151">
    <text x="184" y="194">10:39:38.200</text>
    <text x="424" y="194">10:39:38.400</text>
    <text x="664" y="194">10:39:38.600</text>
    <text x="904" y="194">10:39:38.800</text>
  </g>
  <line x1="180" y1="214" x2="1040" y2="214" stroke="#9ca3af"/>
  <line x1="220" y1="214" x2="220" y2="598" stroke="#e5e7eb"/>
  <line x1="460" y1="214" x2="460" y2="598" stroke="#e5e7eb"/>
  <line x1="700" y1="214" x2="700" y2="598" stroke="#e5e7eb"/>
  <line x1="940" y1="214" x2="940" y2="598" stroke="#e5e7eb"/>

  <text x="74" y="276" font-family="Microsoft YaHei, Arial, sans-serif" font-size="15" font-weight="700" fill="#111827">请求 #1</text>
  <text x="74" y="386" font-family="Microsoft YaHei, Arial, sans-serif" font-size="15" font-weight="700" fill="#111827">请求 #2</text>
  <text x="74" y="496" font-family="Microsoft YaHei, Arial, sans-serif" font-size="15" font-weight="700" fill="#111827">请求 #3</text>

  <g font-family="Microsoft YaHei, Arial, sans-serif">
    <line x1="220" y1="266" x2="900" y2="266" stroke="#d1d5db" stroke-width="2"/>
    <circle cx="220" cy="266" r="8" fill="#111827"/><text x="207" y="244" font-size="14" fill="#111827">A</text>
    <circle cx="530" cy="266" r="8" fill="#111827"/><text x="517" y="244" font-size="14" fill="#111827">B</text>
    <circle cx="900" cy="266" r="8" fill="#111827"/><text x="887" y="244" font-size="14" fill="#111827">C</text>
    <rect x="228" y="252" width="294" height="28" rx="14" fill="#60a5fa"/>
    <text x="338" y="271" font-size="13" fill="#ffffff">B阶段 258ms</text>
    <rect x="538" y="252" width="354" height="28" rx="14" fill="#34d399"/>
    <text x="672" y="271" font-size="13" fill="#064e3b">C阶段 310ms</text>

    <line x1="220" y1="376" x2="970" y2="376" stroke="#d1d5db" stroke-width="2"/>
    <circle cx="220" cy="376" r="8" fill="#111827"/><text x="207" y="354" font-size="14" fill="#111827">A</text>
    <circle cx="420" cy="376" r="8" fill="#111827"/><text x="407" y="354" font-size="14" fill="#111827">B</text>
    <circle cx="970" cy="376" r="8" fill="#111827"/><text x="957" y="354" font-size="14" fill="#111827">C</text>
    <rect x="228" y="362" width="184" height="28" rx="14" fill="#60a5fa"/>
    <text x="280" y="381" font-size="13" fill="#ffffff">B阶段 152ms</text>
    <rect x="428" y="362" width="534" height="28" rx="14" fill="#34d399"/>
    <text x="650" y="381" font-size="13" fill="#064e3b">C阶段 486ms</text>

    <line x1="220" y1="486" x2="820" y2="486" stroke="#d1d5db" stroke-width="2"/>
    <circle cx="220" cy="486" r="8" fill="#111827"/><text x="207" y="464" font-size="14" fill="#111827">A</text>
    <circle cx="660" cy="486" r="8" fill="#111827"/><text x="647" y="464" font-size="14" fill="#111827">B</text>
    <circle cx="820" cy="486" r="8" fill="#111827"/><text x="807" y="464" font-size="14" fill="#111827">C</text>
    <rect x="228" y="472" width="424" height="28" rx="14" fill="#f97316"/>
    <text x="398" y="491" font-size="13" fill="#ffffff">B阶段 420ms</text>
    <rect x="668" y="472" width="144" height="28" rx="14" fill="#34d399"/>
    <text x="704" y="491" font-size="13" fill="#064e3b">C阶段 118ms</text>
  </g>

  <rect x="1036" y="214" width="172" height="214" rx="8" fill="#f9fafb" stroke="#e5e7eb"/>
  <text x="1058" y="250" font-family="Microsoft YaHei, Arial, sans-serif" font-size="18" font-weight="700" fill="#111827">图例</text>
  <rect x="1058" y="280" width="28" height="16" rx="8" fill="#60a5fa"/>
  <text x="1098" y="294" font-family="Microsoft YaHei, Arial, sans-serif" font-size="14" fill="#374151">B阶段</text>
  <rect x="1058" y="316" width="28" height="16" rx="8" fill="#34d399"/>
  <text x="1098" y="330" font-family="Microsoft YaHei, Arial, sans-serif" font-size="14" fill="#374151">C阶段</text>
  <rect x="1058" y="352" width="28" height="16" rx="8" fill="#f97316"/>
  <text x="1098" y="366" font-family="Microsoft YaHei, Arial, sans-serif" font-size="14" fill="#374151">超阈值阶段</text>
  <text x="1058" y="404" font-family="Microsoft YaHei, Arial, sans-serif" font-size="13" fill="#6b7280">点击阶段条查看</text>
  <text x="1058" y="424" font-family="Microsoft YaHei, Arial, sans-serif" font-size="13" fill="#6b7280">A/B/C 原始日志</text>
</svg>
