<svg xmlns="http://www.w3.org/2000/svg" width="1280" height="760" viewBox="0 0 1280 760">
  <rect width="1280" height="760" fill="#f6f8fb"/>
  <rect x="28" y="24" width="1224" height="712" rx="8" fill="#ffffff" stroke="#d8dee9"/>

  <text x="56" y="64" font-family="Microsoft YaHei, Arial, sans-serif" font-size="24" font-weight="700" fill="#111827">阶段时延 - 单次请求 + 统计对比</text>
  <text x="56" y="94" font-family="Microsoft YaHei, Arial, sans-serif" font-size="14" fill="#6b7280">主区域展示用户选择的请求；右侧展示同类请求统计，用于判断这次请求是否异常</text>

  <rect x="56" y="124" width="790" height="442" rx="8" fill="#f9fafb" stroke="#e5e7eb"/>
  <text x="84" y="160" font-family="Microsoft YaHei, Arial, sans-serif" font-size="18" font-weight="700" fill="#111827">REQ-20260617-0018 详细链路</text>

  <g font-family="Microsoft YaHei, Arial, sans-serif" font-size="13" fill="#6b7280">
    <text x="174" y="204">10:39:38.2</text>
    <text x="334" y="204">10:39:38.4</text>
    <text x="494" y="204">10:39:38.6</text>
    <text x="654" y="204">10:39:38.8</text>
  </g>
  <line x1="164" y1="224" x2="790" y2="224" stroke="#9ca3af"/>

  <g font-family="Microsoft YaHei, Arial, sans-serif" font-size="15" font-weight="700" fill="#111827">
    <text x="86" y="282">A00010</text>
    <text x="86" y="370">A00038</text>
    <text x="86" y="458">A00073</text>
  </g>

  <g font-family="Microsoft YaHei, Arial, sans-serif">
    <line x1="176" y1="272" x2="720" y2="272" stroke="#d1d5db" stroke-width="2"/>
    <circle cx="176" cy="272" r="8" fill="#111827"/><text x="171" y="276" font-family="Arial" font-size="11" fill="#ffffff">A</text>
    <circle cx="350" cy="272" r="8" fill="#111827"/><text x="345" y="276" font-family="Arial" font-size="11" fill="#ffffff">B</text>
    <circle cx="498" cy="272" r="8" fill="#111827"/><text x="493" y="276" font-family="Arial" font-size="11" fill="#ffffff">C</text>
    <circle cx="720" cy="272" r="8" fill="#111827"/><text x="715" y="276" font-family="Arial" font-size="11" fill="#ffffff">D</text>
    <rect x="186" y="258" width="154" height="28" rx="14" fill="#60a5fa"/><text x="226" y="277" font-size="13" fill="#ffffff">B 220ms</text>
    <rect x="360" y="258" width="128" height="28" rx="14" fill="#34d399"/><text x="392" y="277" font-size="13" fill="#064e3b">C 160ms</text>
    <rect x="508" y="258" width="202" height="28" rx="14" fill="#f59e0b"/><text x="570" y="277" font-size="13" fill="#78350f">D 260ms</text>

    <line x1="196" y1="360" x2="630" y2="360" stroke="#d1d5db" stroke-width="2"/>
    <circle cx="196" cy="360" r="8" fill="#111827"/><text x="191" y="364" font-family="Arial" font-size="11" fill="#ffffff">A</text>
    <circle cx="590" cy="360" r="8" fill="#111827"/><text x="585" y="364" font-family="Arial" font-size="11" fill="#ffffff">B</text>
    <circle cx="630" cy="360" r="8" fill="#111827"/><text x="625" y="364" font-family="Arial" font-size="11" fill="#ffffff">C</text>
    <rect x="206" y="346" width="374" height="28" rx="14" fill="#fb923c"/><text x="352" y="365" font-size="13" fill="#ffffff">B阶段 520ms</text>
    <rect x="600" y="346" width="20" height="28" rx="10" fill="#34d399"/>

    <line x1="188" y1="448" x2="478" y2="448" stroke="#d1d5db" stroke-width="2"/>
    <circle cx="188" cy="448" r="8" fill="#111827"/><text x="183" y="452" font-family="Arial" font-size="11" fill="#ffffff">A</text>
    <circle cx="302" cy="448" r="8" fill="#111827"/><text x="297" y="452" font-family="Arial" font-size="11" fill="#ffffff">B</text>
    <circle cx="478" cy="448" r="8" fill="#111827"/><text x="473" y="452" font-family="Arial" font-size="11" fill="#ffffff">C</text>
    <rect x="198" y="434" width="94" height="28" rx="14" fill="#60a5fa"/><text x="216" y="453" font-size="13" fill="#ffffff">B 120</text>
    <rect x="312" y="434" width="156" height="28" rx="14" fill="#34d399"/><text x="354" y="453" font-size="13" fill="#064e3b">C 210ms</text>
  </g>

  <rect x="84" y="506" width="708" height="40" rx="6" fill="#fff7ed" stroke="#fed7aa"/>
  <text x="106" y="531" font-family="Microsoft YaHei, Arial, sans-serif" font-size="14" fill="#9a3412">异常提示: A00038 的 B阶段耗时 520ms，高于同类请求 P90，建议查看 A日志与 B日志之间上下文。</text>

  <rect x="876" y="124" width="332" height="442" rx="8" fill="#f9fafb" stroke="#e5e7eb"/>
  <text x="904" y="160" font-family="Microsoft YaHei, Arial, sans-serif" font-size="18" font-weight="700" fill="#111827">同类请求统计</text>

  <g font-family="Microsoft YaHei, Arial, sans-serif" font-size="14" fill="#374151">
    <text x="904" y="202">统计范围: 当前过滤条件</text>
    <text x="904" y="232">请求总数: 126</text>
    <text x="904" y="262">平均总耗时: 340ms</text>
    <text x="904" y="292">P90 总耗时: 760ms</text>
    <text x="904" y="322">当前请求排名: Top 8%</text>
  </g>

  <text x="904" y="370" font-family="Microsoft YaHei, Arial, sans-serif" font-size="15" font-weight="700" fill="#111827">阶段 P90</text>
  <g font-family="Microsoft YaHei, Arial, sans-serif" font-size="13">
    <rect x="904" y="390" width="86" height="24" rx="12" fill="#60a5fa"/><text x="924" y="407" fill="#ffffff">B阶段</text>
    <rect x="1000" y="390" width="126" height="24" rx="12" fill="#dbeafe"/><text x="1040" y="407" fill="#1e3a8a">420ms</text>

    <rect x="904" y="430" width="86" height="24" rx="12" fill="#34d399"/><text x="924" y="447" fill="#064e3b">C阶段</text>
    <rect x="1000" y="430" width="74" height="24" rx="12" fill="#dcfce7"/><text x="1018" y="447" fill="#14532d">180ms</text>

    <rect x="904" y="470" width="86" height="24" rx="12" fill="#f59e0b"/><text x="924" y="487" fill="#78350f">D阶段</text>
    <rect x="1000" y="470" width="102" height="24" rx="12" fill="#fef3c7"/><text x="1030" y="487" fill="#78350f">300ms</text>
  </g>

  <rect x="904" y="518" width="126" height="34" rx="6" fill="#2563eb"/>
  <text x="926" y="540" font-family="Microsoft YaHei, Arial, sans-serif" font-size="14" fill="#ffffff">查看日志</text>
</svg>
