<svg xmlns="http://www.w3.org/2000/svg" width="1280" height="760" viewBox="0 0 1280 760">
  <rect width="1280" height="760" fill="#f6f8fb"/>
  <rect x="28" y="24" width="1224" height="712" rx="8" fill="#ffffff" stroke="#d8dee9"/>

  <text x="56" y="64" font-family="Microsoft YaHei, Arial, sans-serif" font-size="24" font-weight="700" fill="#111827">时延分析 - 应用泳道明细</text>
  <text x="56" y="94" font-family="Microsoft YaHei, Arial, sans-serif" font-size="14" fill="#6b7280">适合从异常时间段下钻到具体日志，看到每个应用的慢请求分布</text>

  <rect x="56" y="124" width="688" height="40" rx="6" fill="#f9fafb" stroke="#e5e7eb"/>
  <text x="78" y="149" font-family="Microsoft YaHei, Arial, sans-serif" font-size="14" fill="#374151">过滤: appPrefix=A00010,A00038  |  级别=W/E  |  时间=10:30-11:30  |  阈值&gt;300ms</text>

  <line x1="160" y1="220" x2="1004" y2="220" stroke="#9ca3af"/>
  <g font-family="Microsoft YaHei, Arial, sans-serif" font-size="13" fill="#374151">
    <text x="160" y="202">10:30</text>
    <text x="300" y="202">10:40</text>
    <text x="440" y="202">10:50</text>
    <text x="580" y="202">11:00</text>
    <text x="720" y="202">11:10</text>
    <text x="860" y="202">11:20</text>
    <text x="974" y="202">11:30</text>
  </g>

  <g stroke="#e5e7eb">
    <line x1="160" y1="220" x2="160" y2="526"/>
    <line x1="300" y1="220" x2="300" y2="526"/>
    <line x1="440" y1="220" x2="440" y2="526"/>
    <line x1="580" y1="220" x2="580" y2="526"/>
    <line x1="720" y1="220" x2="720" y2="526"/>
    <line x1="860" y1="220" x2="860" y2="526"/>
    <line x1="1004" y1="220" x2="1004" y2="526"/>
  </g>

  <g font-family="Microsoft YaHei, Arial, sans-serif" font-size="14" fill="#111827">
    <text x="70" y="266">A00010</text>
    <text x="70" y="346">A00038</text>
    <text x="70" y="426">A00073</text>
    <text x="70" y="506">A00121</text>
  </g>

  <g>
    <rect x="186" y="242" width="64" height="18" rx="9" fill="#86efac"/><text x="202" y="256" font-family="Arial" font-size="11" fill="#14532d">90ms</text>
    <rect x="382" y="242" width="80" height="18" rx="9" fill="#fde68a"/><text x="398" y="256" font-family="Arial" font-size="11" fill="#78350f">260ms</text>
    <rect x="552" y="242" width="142" height="18" rx="9" fill="#fca5a5"/><text x="594" y="256" font-family="Arial" font-size="11" fill="#7f1d1d">680ms</text>
    <rect x="742" y="242" width="72" height="18" rx="9" fill="#bbf7d0"/><text x="760" y="256" font-family="Arial" font-size="11" fill="#14532d">120ms</text>

    <rect x="208" y="322" width="102" height="18" rx="9" fill="#fed7aa"/><text x="236" y="336" font-family="Arial" font-size="11" fill="#7c2d12">410ms</text>
    <rect x="454" y="322" width="176" height="18" rx="9" fill="#ef4444"/><text x="512" y="336" font-family="Arial" font-size="11" fill="#ffffff">910ms</text>
    <rect x="648" y="322" width="154" height="18" rx="9" fill="#fca5a5"/><text x="698" y="336" font-family="Arial" font-size="11" fill="#7f1d1d">720ms</text>
    <rect x="872" y="322" width="72" height="18" rx="9" fill="#bbf7d0"/><text x="890" y="336" font-family="Arial" font-size="11" fill="#14532d">130ms</text>

    <rect x="178" y="402" width="62" height="18" rx="9" fill="#bbf7d0"/><text x="195" y="416" font-family="Arial" font-size="11" fill="#14532d">78ms</text>
    <rect x="326" y="402" width="66" height="18" rx="9" fill="#bbf7d0"/><text x="344" y="416" font-family="Arial" font-size="11" fill="#14532d">95ms</text>
    <rect x="708" y="402" width="92" height="18" rx="9" fill="#fde68a"/><text x="732" y="416" font-family="Arial" font-size="11" fill="#78350f">230ms</text>

    <rect x="192" y="482" width="58" height="18" rx="9" fill="#bbf7d0"/><text x="208" y="496" font-family="Arial" font-size="11" fill="#14532d">68ms</text>
    <rect x="580" y="482" width="70" height="18" rx="9" fill="#bbf7d0"/><text x="598" y="496" font-family="Arial" font-size="11" fill="#14532d">110ms</text>
    <rect x="830" y="482" width="86" height="18" rx="9" fill="#fde68a"/><text x="852" y="496" font-family="Arial" font-size="11" fill="#78350f">280ms</text>
  </g>

  <rect x="552" y="316" width="176" height="30" rx="15" fill="none" stroke="#111827" stroke-width="2"/>
  <path d="M640 348 L712 404" stroke="#111827" stroke-width="2"/>

  <rect x="764" y="388" width="424" height="246" rx="8" fill="#f9fafb" stroke="#d1d5db"/>
  <text x="790" y="424" font-family="Microsoft YaHei, Arial, sans-serif" font-size="18" font-weight="700" fill="#111827">下钻日志列表</text>
  <text x="790" y="452" font-family="Microsoft YaHei, Arial, sans-serif" font-size="13" fill="#6b7280">A00038 / 10:52:10 - 10:58:40 / latency &gt; 300ms</text>

  <g font-family="Microsoft YaHei, Arial, sans-serif" font-size="12">
    <rect x="790" y="474" width="370" height="34" rx="4" fill="#ffffff" stroke="#e5e7eb"/>
    <text x="806" y="496" fill="#991b1b">10:54:03.120  W  WakeupManager  cost=910ms dispatch wakeup...</text>
    <rect x="790" y="516" width="370" height="34" rx="4" fill="#ffffff" stroke="#e5e7eb"/>
    <text x="806" y="538" fill="#92400e">10:55:18.256  W  TaskRunner  latency=720ms execute job...</text>
    <rect x="790" y="558" width="370" height="34" rx="4" fill="#ffffff" stroke="#e5e7eb"/>
    <text x="806" y="580" fill="#92400e">10:57:41.009  E  RemoteCall  duration=650ms call failed...</text>
  </g>

  <rect x="790" y="606" width="126" height="34" rx="6" fill="#2563eb"/>
  <text x="812" y="628" font-family="Microsoft YaHei, Arial, sans-serif" font-size="14" fill="#ffffff">跳转搜索页</text>
</svg>
