<svg xmlns="http://www.w3.org/2000/svg" width="1280" height="760" viewBox="0 0 1280 760">
  <rect width="1280" height="760" fill="#f6f8fb"/>
  <rect x="28" y="24" width="1224" height="712" rx="8" fill="#ffffff" stroke="#d8dee9"/>

  <text x="56" y="64" font-family="Microsoft YaHei, Arial, sans-serif" font-size="24" font-weight="700" fill="#111827">阶段时延 - 下钻分析</text>
  <text x="56" y="94" font-family="Microsoft YaHei, Arial, sans-serif" font-size="14" fill="#6b7280">选中一个慢阶段后，同时展示阶段耗时、边界日志和原始上下文</text>

  <rect x="56" y="124" width="760" height="162" rx="8" fill="#f9fafb" stroke="#e5e7eb"/>
  <text x="82" y="160" font-family="Microsoft YaHei, Arial, sans-serif" font-size="18" font-weight="700" fill="#111827">请求链路 #REQ-20260616-0018 / A00038</text>

  <line x1="130" y1="220" x2="740" y2="220" stroke="#d1d5db" stroke-width="2"/>
  <circle cx="130" cy="220" r="11" fill="#111827"/><text x="124" y="224" font-family="Arial" font-size="13" fill="#ffffff">A</text>
  <circle cx="390" cy="220" r="11" fill="#111827"/><text x="384" y="224" font-family="Arial" font-size="13" fill="#ffffff">B</text>
  <circle cx="740" cy="220" r="11" fill="#111827"/><text x="734" y="224" font-family="Arial" font-size="13" fill="#ffffff">C</text>

  <rect x="146" y="202" width="228" height="36" rx="18" fill="#fb923c"/>
  <text x="220" y="225" font-family="Microsoft YaHei, Arial, sans-serif" font-size="14" fill="#ffffff">B阶段 690ms</text>
  <rect x="406" y="202" width="318" height="36" rx="18" fill="#34d399"/>
  <text x="518" y="225" font-family="Microsoft YaHei, Arial, sans-serif" font-size="14" fill="#064e3b">C阶段 210ms</text>

  <text x="96" y="260" font-family="Microsoft YaHei, Arial, sans-serif" font-size="13" fill="#6b7280">A日志: 10:39:38.257 dispatch wakeup request</text>
  <text x="356" y="260" font-family="Microsoft YaHei, Arial, sans-serif" font-size="13" fill="#6b7280">B日志: 10:39:38.947 wakeup service ready</text>
  <text x="654" y="260" font-family="Microsoft YaHei, Arial, sans-serif" font-size="13" fill="#6b7280">C日志: 10:39:39.157 callback done</text>

  <rect x="852" y="124" width="356" height="162" rx="8" fill="#fff7ed" stroke="#fed7aa"/>
  <text x="878" y="160" font-family="Microsoft YaHei, Arial, sans-serif" font-size="18" font-weight="700" fill="#9a3412">慢阶段摘要</text>
  <text x="878" y="198" font-family="Microsoft YaHei, Arial, sans-serif" font-size="14" fill="#374151">阶段: B阶段</text>
  <text x="878" y="226" font-family="Microsoft YaHei, Arial, sans-serif" font-size="14" fill="#374151">来源: A日志 -> B日志</text>
  <text x="878" y="254" font-family="Microsoft YaHei, Arial, sans-serif" font-size="14" fill="#374151">耗时: 690ms，高于阈值 300ms</text>

  <rect x="56" y="318" width="548" height="348" rx="8" fill="#f9fafb" stroke="#e5e7eb"/>
  <text x="82" y="354" font-family="Microsoft YaHei, Arial, sans-serif" font-size="18" font-weight="700" fill="#111827">边界日志</text>
  <g font-family="Microsoft YaHei, Arial, sans-serif" font-size="13">
    <rect x="82" y="382" width="486" height="58" rx="6" fill="#ffffff" stroke="#e5e7eb"/>
    <text x="104" y="408" fill="#111827">A日志 / 20675 / 10:39:38.257</text>
    <text x="104" y="430" fill="#6b7280">WakeupManager: mainProcess dispatch wakeup request</text>

    <rect x="82" y="460" width="486" height="58" rx="6" fill="#ffffff" stroke="#f97316"/>
    <text x="104" y="486" fill="#111827">B日志 / 20742 / 10:39:38.947</text>
    <text x="104" y="508" fill="#9a3412">WakeupService: wakeup service ready</text>

    <rect x="82" y="538" width="486" height="58" rx="6" fill="#ffffff" stroke="#e5e7eb"/>
    <text x="104" y="564" fill="#111827">C日志 / 20789 / 10:39:39.157</text>
    <text x="104" y="586" fill="#6b7280">CallbackManager: callback done</text>
  </g>

  <rect x="636" y="318" width="572" height="348" rx="8" fill="#f9fafb" stroke="#e5e7eb"/>
  <text x="662" y="354" font-family="Microsoft YaHei, Arial, sans-serif" font-size="18" font-weight="700" fill="#111827">上下文日志</text>
  <g font-family="Microsoft YaHei, Arial, sans-serif" font-size="12">
    <rect x="662" y="382" width="508" height="34" rx="4" fill="#ffffff" stroke="#e5e7eb"/>
    <text x="678" y="404" fill="#6b7280">20670 10:39:38.230 I A00038/... prepare wakeup context</text>
    <rect x="662" y="424" width="508" height="34" rx="4" fill="#ffffff" stroke="#e5e7eb"/>
    <text x="678" y="446" fill="#111827">20675 10:39:38.257 W A00038/... dispatch wakeup request</text>
    <rect x="662" y="466" width="508" height="34" rx="4" fill="#fff7ed" stroke="#fb923c"/>
    <text x="678" y="488" fill="#9a3412">20742 10:39:38.947 W A00038/... wakeup service ready</text>
    <rect x="662" y="508" width="508" height="34" rx="4" fill="#ffffff" stroke="#e5e7eb"/>
    <text x="678" y="530" fill="#111827">20789 10:39:39.157 I A00038/... callback done</text>
    <rect x="662" y="550" width="508" height="34" rx="4" fill="#ffffff" stroke="#e5e7eb"/>
    <text x="678" y="572" fill="#6b7280">20801 10:39:39.190 I A00038/... release wakeup context</text>
  </g>

  <rect x="662" y="612" width="116" height="34" rx="6" fill="#2563eb"/>
  <text x="686" y="634" font-family="Microsoft YaHei, Arial, sans-serif" font-size="14" fill="#ffffff">回到搜索</text>
  <rect x="794" y="612" width="138" height="34" rx="6" fill="#ffffff" stroke="#d1d5db"/>
  <text x="818" y="634" font-family="Microsoft YaHei, Arial, sans-serif" font-size="14" fill="#374151">导出该请求</text>
</svg>
